<?xml version="1.0" encoding="UTF-8"?>
<svg width="422px" height="441px" viewBox="0 0 422 441" version="1.1" xmlns="http://www.w3.org/2000/svg" xmlns:xlink="http://www.w3.org/1999/xlink">
    <!-- Generator: Sketch 45.1 (43504) - http://www.bohemiancoding.com/sketch -->
    <title>Looper_Group</title>
    <desc>Created with Sketch.</desc>
    <defs></defs>
    <g id="Page-1" stroke="none" stroke-width="1" fill="none" fill-rule="evenodd" opacity="0.398550725">
        <g id="Home" transform="translate(-534.000000, -134.000000)" stroke="rgba(64, 64, 95, 0.15)">
            <g id="Group" transform="translate(407.331498, 134.000000)">
                <g id="Looper_Group" transform="translate(128.000000, 0.000000)">
                    <g id="original_original_Oval-2_2870146_67018910-Group">
                        <path d="M204.776981,422.167668 C304.677535,489.437474 462.724367,355.708108 409.458412,217.486236 C356.192458,79.2643639 313.712615,-38.3704064 204.776981,12.8048046 C95.841347,63.9800156 0.095549278,104.443803 0.095549278,217.486236 C0.095549278,330.528669 104.876426,354.897861 204.776981,422.167668 Z" id="duplicate_50_original_original_Oval-2_2870146_67018910"></path>
                        <path d="M204.999692,418.276774 C302.974224,484.249659 457.974007,353.098516 405.734988,217.541478 C353.495969,81.9844413 311.835112,-33.3824008 204.999692,16.8061827 C98.1642722,66.9947662 4.26439631,106.678436 4.26439631,217.541478 C4.26439631,328.404521 107.025161,352.303889 204.999692,418.276774 Z" id="duplicate_49_original_original_Oval-2_2870146_67018910"></path>
                        <path d="M206.096202,415.26162 C302.578209,480.229487 455.216755,351.076274 403.773535,217.584287 C352.330316,84.0922999 311.304112,-29.5170659 206.096202,19.9069543 C100.888293,69.3309746 8.4188695,108.410111 8.4188695,217.584287 C8.4188695,326.758463 109.614196,350.293753 206.096202,415.26162 Z" id="duplicate_48_original_original_Oval-2_2870146_67018910"></path>
                        <path d="M207.175503,412.353564 C302.217999,476.352111 452.579179,349.125863 401.903492,217.625575 C351.227805,86.1252871 310.813712,-25.7890281 207.175503,22.8975862 C103.537294,71.5842006 12.4475139,110.080277 12.4475139,217.625575 C12.4475139,325.170874 112.133007,348.355018 207.175503,412.353564 Z" id="duplicate_47_original_original_Oval-2_2870146_67018910"></path>
                        <path d="M208.131767,409.340033 C301.682541,472.334102 449.683756,347.104711 399.803439,217.668361 C349.923123,88.2320112 310.143342,-21.9257736 208.131767,25.996689 C106.120193,73.9191517 16.4600956,111.81102 16.4600956,217.668361 C16.4600956,323.525702 114.580994,346.345963 208.131767,409.340033 Z" id="duplicate_46_original_original_Oval-2_2870146_67018910"></path>
                        <path d="M209.06922,406.430346 C301.179675,468.454552 446.902247,345.153206 397.789893,217.709672 C348.67754,90.2661388 309.510213,-18.1956446 209.06922,28.9889985 C108.628227,76.1736416 20.348546,113.482122 20.348546,217.709672 C20.348546,321.937222 116.958764,344.40614 209.06922,406.430346 Z" id="duplicate_45_original_original_Oval-2_2870146_67018910"></path>
                        <path d="M209.885248,403.418437 C300.504784,464.438706 443.86866,343.133141 395.551249,217.752435 C347.233839,92.3717287 308.700482,-14.3344699 209.885248,32.0864328 C111.070013,78.5073356 24.2192455,115.211933 24.2192455,217.752435 C24.2192455,320.292936 119.265711,342.398168 209.885248,403.418437 Z" id="duplicate_44_original_original_Oval-2_2870146_67018910"></path>
                        <path d="M210.680861,400.507118 C299.859272,460.55698 440.943227,341.180542 393.39421,217.793769 C345.845192,94.406997 307.924633,-10.6022492 210.680861,35.0804203 C113.437089,80.7630898 27.9675118,116.883973 27.9675118,217.793769 C27.9675118,318.703566 121.50245,340.457257 210.680861,400.507118 Z" id="duplicate_43_original_original_Oval-2_2870146_67018910"></path>
                        <path d="M211.356661,397.496831 C299.044957,456.543297 437.771486,339.161565 391.016984,217.836509 C344.262481,96.511453 306.97555,-6.74315374 211.356661,38.1761867 C115.737772,83.0955271 31.6963391,118.612853 31.6963391,217.836509 C31.6963391,317.060165 123.668366,338.450365 211.356661,397.496831 Z" id="duplicate_42_original_original_Oval-2_2870146_67018910"></path>
                        <path d="M212.010446,394.58388 C298.256807,452.659395 434.702138,337.207871 388.716459,217.877866 C342.730781,98.5478623 306.056991,-3.00884061 212.010446,41.1718527 C117.9639,85.3525459 35.3044318,120.28583 35.3044318,217.877866 C35.3044318,315.469903 125.764084,336.508366 212.010446,394.58388 Z" id="duplicate_41_original_original_Oval-2_2870146_67018910"></path>
                        <path d="M212.54603,391.575215 C297.303078,448.647873 431.392253,335.189981 386.200661,217.920583 C341.009069,100.651185 304.968568,0.848176219 212.54603,44.2659515 C120.123492,87.6837269 38.8913982,122.013778 38.8913982,217.920583 C38.8913982,313.827388 127.788981,334.502556 212.54603,391.575215 Z" id="duplicate_40_original_original_Oval-2_2870146_67018910"></path>
                        <path d="M213.057996,388.660631 C296.372303,444.761794 428.179,333.235192 383.756664,217.961964 C339.334327,102.688736 303.90731,4.58458246 213.057996,47.2632966 C122.208683,89.9420108 42.3593291,123.687693 42.3593291,217.961964 C42.3593291,312.236235 129.74369,332.559468 213.057996,388.660631 Z" id="duplicate_39_original_original_Oval-2_2870146_67018910"></path>
                        <path d="M213.453376,385.653586 C295.279171,440.752434 424.730982,331.21839 381.102305,218.004657 C337.473627,104.790925 302.679556,8.43952144 213.453376,50.3557287 C124.227195,92.2719359 45.804447,125.414711 45.804447,218.004657 C45.804447,310.594604 131.62758,330.554738 213.453376,385.653586 Z" id="duplicate_38_original_original_Oval-2_2870146_67018910"></path>
                        <path d="M213.823537,382.737369 C294.205782,436.864177 421.373836,329.262505 378.514845,218.046061 C335.655854,106.829618 301.475611,12.1780216 213.823537,53.3547535 C126.171463,94.5314854 49.1322292,127.089564 49.1322292,218.046061 C49.1322292,309.002559 133.441292,328.610562 213.823537,382.737369 Z" id="duplicate_37_original_original_Oval-2_2870146_67018910"></path>
                        <path d="M214.078725,379.731945 C292.973261,432.856977 417.787698,327.24679 375.721937,218.088732 C333.656177,108.930674 300.108541,16.0308836 214.078725,56.4455194 C128.048909,96.8601552 52.4355123,128.815651 52.4355123,218.088732 C52.4355123,307.361813 135.184189,326.606912 214.078725,379.731945 Z" id="duplicate_36_original_original_Oval-2_2870146_67018910"></path>
                        <path d="M214.307095,376.814094 C291.757271,428.966541 414.286672,325.289809 372.991029,218.130159 C331.695387,110.970509 298.761922,19.7714787 214.307095,59.4462248 C129.852267,99.1209709 55.6231604,130.491442 55.6231604,218.130159 C55.6231604,305.768876 136.856918,324.661646 214.307095,376.814094 Z" id="duplicate_35_original_original_Oval-2_2870146_67018910"></path>
                        <path d="M214.447661,372.845139 C289.933174,423.674645 409.354394,322.627861 369.10629,218.18651 C328.858187,113.745158 296.760139,24.8595561 214.447661,63.5278805 C132.135183,102.196205 59.7890319,132.770907 59.7890319,218.18651 C59.7890319,303.602112 138.962148,322.015633 214.447661,372.845139 Z" id="duplicate_34_original_original_Oval-2_2870146_67018910"></path>
                        <path d="M215.539305,369.901377 C289.567633,419.749661 406.683525,320.653502 367.212378,218.228305 C327.74123,115.803108 296.262809,28.6333684 215.539305,66.5552327 C134.815802,104.477097 63.8662333,134.46158 63.8662333,218.228305 C63.8662333,301.99503 141.510978,320.053092 215.539305,369.901377 Z" id="duplicate_33_original_original_Oval-2_2870146_67018910"></path>
                        <path d="M216.543186,366.923376 C289.097379,415.779026 403.88113,318.656179 365.195976,218.270586 C326.510822,117.884993 295.659234,32.4510743 216.543186,69.6177964 C137.427139,106.784518 67.8903967,136.171917 67.8903967,218.270586 C67.8903967,300.369255 143.988993,318.067726 216.543186,366.923376 Z" id="duplicate_32_original_original_Oval-2_2870146_67018910"></path>
                        <path d="M217.49314,363.978942 C288.589816,411.853147 401.067712,316.68137 363.159692,218.312391 C325.251671,119.943411 295.019851,36.2257474 217.49314,72.6458391 C139.96643,109.065931 71.8265889,137.862976 71.8265889,218.312391 C71.8265889,298.761806 146.396465,316.104737 217.49314,363.978942 Z" id="duplicate_31_original_original_Oval-2_2870146_67018910"></path>
                        <path d="M218.355994,361.001626 C287.978874,407.883425 398.125166,314.684506 361.002958,218.354662 C323.88075,122.024818 294.275618,40.0425751 218.355994,75.7076983 C142.436369,111.372822 75.70903,139.572919 75.70903,218.354662 C75.70903,297.136405 148.733114,314.119827 218.355994,361.001626 Z" id="duplicate_30_original_original_Oval-2_2870146_67018910"></path>
                        <path d="M219.164243,358.056522 C287.329274,403.956651 395.169186,312.709247 358.824289,218.396476 C322.479391,124.083705 293.494169,43.8181079 219.164243,78.7364307 C144.834318,113.654754 79.5041978,141.264363 79.5041978,218.396476 C79.5041978,295.52859 150.999213,312.156392 219.164243,358.056522 Z" id="duplicate_29_original_original_Oval-2_2870146_67018910"></path>
                        <path d="M219.886054,355.079891 C286.577629,399.987844 392.086474,310.712844 356.527208,218.438738 C320.967942,126.164632 292.609264,47.6340563 219.886054,81.7975845 C147.162845,115.961113 83.2449008,142.973913 83.2449008,218.438738 C83.2449008,293.903563 153.19448,310.171939 219.886054,355.079891 Z" id="duplicate_28_original_original_Oval-2_2870146_67018910"></path>
                        <path d="M220.552583,352.134118 C285.785977,396.060178 388.987918,308.737136 354.206139,218.480562 C319.424361,128.223988 291.685733,51.4104474 220.552583,84.8270055 C149.419434,118.243564 86.8990272,144.665741 86.8990272,218.480562 C86.8990272,292.295382 155.31919,308.208058 220.552583,352.134118 Z" id="duplicate_27_original_original_Oval-2_2870146_67018910"></path>
                        <path d="M221.133335,349.158175 C284.893613,392.092286 385.765024,306.741193 351.768696,218.522814 C317.772367,130.304434 290.660139,55.225515 221.133335,87.8874527 C151.60653,120.54939 90.4979738,146.374896 90.4979738,218.522814 C90.4979738,290.670731 157.373057,306.224063 221.133335,349.158175 Z" id="duplicate_26_original_original_Oval-2_2870146_67018910"></path>
                        <path d="M221.658125,346.211732 C283.959891,388.163729 382.523876,304.765036 349.305211,218.564647 C316.086546,132.364257 289.594508,59.002763 221.658125,90.917561 C153.721742,122.832359 94.0110394,148.067108 94.0110394,218.564647 C94.0110394,289.062186 159.356359,304.259736 221.658125,346.211732 Z" id="duplicate_25_original_original_Oval-2_2870146_67018910"></path>
                        <path d="M222.097797,343.236478 C282.926789,384.196755 379.160782,302.769556 346.727386,218.606889 C314.29399,134.444222 288.428207,62.8169481 222.097797,93.9773003 C155.767388,125.137653 97.4682087,149.775868 97.4682087,218.606889 C97.4682087,287.43791 161.268806,302.2762 222.097797,343.236478 Z" id="duplicate_24_original_original_Oval-2_2870146_67018910"></path>
                        <path d="M222.480828,340.289369 C281.850977,380.267309 375.777022,300.792952 344.121465,218.648732 C312.465909,136.504511 287.220457,66.5950511 222.480828,97.0080945 C157.741199,127.421138 100.840191,151.468463 100.840191,218.648732 C100.840191,285.829 163.110679,300.311428 222.480828,340.289369 Z" id="duplicate_23_original_original_Oval-2_2870146_67018910"></path>
                        <path d="M222.779399,337.314804 C280.677115,376.301255 372.273709,298.797934 341.403239,218.690964 C310.532768,138.583994 285.913427,70.4083517 222.779399,100.067124 C159.645371,129.725897 104.155559,153.176826 104.155559,218.690964 C104.155559,284.205102 164.881683,298.328352 222.779399,337.314804 Z" id="duplicate_22_original_original_Oval-2_2870146_67018910"></path>
                        <path d="M223.020646,334.367029 C279.459191,372.370922 368.747315,296.820884 338.65486,218.732816 C308.562405,140.644748 284.563534,74.1873074 223.020646,103.098603 C161.477759,132.009898 107.386433,154.869803 107.386433,218.732816 C107.386433,282.595829 166.582102,296.363137 223.020646,334.367029 Z" id="duplicate_21_original_original_Oval-2_2870146_67018910"></path>
                        <path d="M223.203657,330.427578 C277.692142,367.118363 363.89519,294.178723 334.842487,218.788748 C305.789784,143.398772 282.62012,79.2375634 223.203657,107.149918 C163.787194,135.062272 111.564827,157.132324 111.564827,218.788748 C111.564827,280.445171 168.715173,293.736792 223.203657,330.427578 Z" id="duplicate_20_original_original_Oval-2_2870146_67018910"></path>
                        <path d="M224.308832,327.445738 C277.321283,363.14261 361.189184,292.178826 332.923487,218.831083 C304.657791,145.483341 282.115768,83.0601896 224.308832,110.216429 C166.501897,137.372668 115.694178,158.844866 115.694178,218.831083 C115.694178,278.817301 171.296382,291.748866 224.308832,327.445738 Z" id="duplicate_19_original_original_Oval-2_2870146_67018910"></path>
                        <path d="M225.363868,324.505307 C276.920781,359.222068 358.485963,290.206701 330.996344,218.872831 C303.506724,147.538961 281.583627,86.8297312 225.363868,113.240355 C169.144109,139.650979 119.731391,160.533625 119.731391,218.872831 C119.731391,277.212037 173.806954,289.788547 225.363868,324.505307 Z" id="duplicate_18_original_original_Oval-2_2870146_67018910"></path>
                        <path d="M226.327831,321.524645 C276.409293,355.247884 355.64025,288.207593 328.937326,218.91515 C302.234402,149.622707 280.938698,90.6508487 226.327831,116.305655 C171.716964,141.960462 123.718336,162.245491 123.718336,218.91515 C123.718336,275.584809 176.246369,287.801406 226.327831,321.524645 Z" id="duplicate_17_original_original_Oval-2_2870146_67018910"></path>
                        <path d="M227.24049,318.583105 C275.865867,351.325864 352.793236,286.234725 326.866682,218.956914 C300.940128,151.679102 280.263582,94.4218118 227.24049,119.330722 C174.217398,144.239632 127.614298,163.934887 127.614298,218.956914 C127.614298,273.97894 178.615113,285.840347 227.24049,318.583105 Z" id="duplicate_16_original_original_Oval-2_2870146_67018910"></path>
                        <path d="M228.06317,315.603626 C275.213682,347.353257 349.807751,284.236411 324.667581,218.999216 C299.52741,153.762021 279.478008,98.2414126 228.06317,122.394806 C176.648332,146.548199 131.45876,165.646073 131.45876,218.999216 C131.45876,272.352358 180.912659,283.853995 228.06317,315.603626 Z" id="duplicate_15_original_original_Oval-2_2870146_67018910"></path>
                        <path d="M228.833376,312.660985 C274.527256,343.429768 346.816875,282.262803 322.453365,219.040995 C298.089855,155.819187 278.659844,102.013788 228.833376,125.421005 C179.006907,148.828223 135.213386,167.336102 135.213386,219.040995 C135.213386,270.745888 183.139495,281.892201 228.833376,312.660985 Z" id="duplicate_14_original_original_Oval-2_2870146_67018910"></path>
                        <path d="M229.514689,309.682696 C273.734293,339.458749 343.691545,280.265288 320.114104,219.08328 C296.536663,157.901273 277.733546,105.831862 229.514689,128.483864 C181.295831,151.135867 138.915273,169.046605 138.915273,219.08328 C138.915273,269.119956 185.295084,279.906643 229.514689,309.682696 Z" id="duplicate_13_original_original_Oval-2_2870146_67018910"></path>
                        <path d="M230.142347,306.738962 C272.90478,335.533803 340.556726,278.290947 317.756234,219.125075 C294.955742,159.959202 276.772245,109.605639 230.142347,131.511188 C183.512449,153.416737 142.52846,170.737261 142.52846,219.125075 C142.52846,267.512889 187.379915,277.944121 230.142347,306.738962 Z" id="duplicate_12_original_original_Oval-2_2870146_67018910"></path>
                        <path d="M230.68219,303.761874 C271.970941,331.564385 337.291461,276.294237 315.276721,219.167343 C293.261982,162.040449 275.705126,113.422174 230.68219,134.572812 C185.659255,155.723451 146.087659,172.447074 146.087659,219.167343 C146.087659,265.887613 189.39344,275.959363 230.68219,303.761874 Z" id="duplicate_11_original_original_Oval-2_2870146_67018910"></path>
                        <path d="M231.16719,300.817058 C270.998233,327.637996 334.0126,274.319172 312.775095,219.209153 C291.53759,164.099135 274.600582,117.197337 231.16719,137.601248 C187.733798,158.005159 149.559285,174.138352 149.559285,219.209153 C149.559285,264.279955 191.336147,273.99612 231.16719,300.817058 Z" id="duplicate_10_original_original_Oval-2_2870146_67018910"></path>
                        <path d="M231.565438,297.841185 C269.923401,323.670198 330.607292,272.323276 310.155219,219.251404 C289.703146,166.179533 273.392523,121.012315 231.565438,140.661624 C189.738354,160.310932 152.975658,175.847467 152.975658,219.251404 C152.975658,262.655341 193.207476,272.012172 231.565438,297.841185 Z" id="duplicate_9_original_original_Oval-2_2870146_67018910"></path>
                        <path d="M231.907641,294.895303 C268.807368,319.742387 327.184271,270.347495 307.509714,219.293229 C287.835156,168.238964 272.144607,124.788845 231.907641,143.691156 C191.670675,162.593467 156.305567,177.539357 156.305567,219.293229 C156.305567,261.047102 195.007913,270.048218 231.907641,294.895303 Z" id="duplicate_8_original_original_Oval-2_2870146_67018910"></path>
                        <path d="M232.16414,291.920661 C267.591397,315.776231 323.638789,268.352425 304.749338,219.335463 C285.859887,170.318501 270.795464,128.602245 232.16414,146.750265 C193.532817,164.898286 159.578943,179.247765 159.578943,219.335463 C159.578943,259.423161 196.736884,268.065091 232.16414,291.920661 Z" id="duplicate_7_original_original_Oval-2_2870146_67018910"></path>
                        <path d="M232.363372,288.973733 C266.331876,311.847026 320.071461,266.375943 301.959802,219.377303 C283.848144,172.378663 269.404012,132.380115 232.363372,149.780873 C195.322732,167.18163 162.766942,180.940256 162.766942,219.377303 C162.766942,257.81435 198.394869,266.10044 232.363372,288.973733 Z" id="duplicate_6_original_original_Oval-2_2870146_67018910"></path>
                        <path d="M232.503492,285.034924 C264.522254,306.595324 315.177267,263.734213 298.10519,219.433226 C281.033114,175.132238 267.418054,137.429547 232.503492,153.831527 C197.58893,170.233507 166.901794,183.202408 166.901794,219.433226 C166.901794,255.664043 200.48473,263.474524 232.503492,285.034924 Z" id="duplicate_5_original_original_Oval-2_2870146_67018910"></path>
                        <path d="M233.565731,282.030184 C264.097123,302.589038 312.399055,261.718957 296.120029,219.475886 C279.841003,177.232816 266.858405,141.281531 233.565731,156.921588 C200.273057,172.561646 171.011433,184.928102 171.011433,219.475886 C171.011433,254.023671 203.034339,261.471331 233.565731,282.030184 Z" id="duplicate_4_original_original_Oval-2_2870146_67018910"></path>
                        <path d="M234.600478,279.111542 C263.687119,298.697546 309.703394,259.761445 294.194695,219.517325 C278.685995,179.273204 266.317736,145.023141 234.600478,159.923108 C202.88322,174.823075 175.006261,186.604348 175.006261,219.517325 C175.006261,252.430302 205.513837,259.525537 234.600478,279.111542 Z" id="duplicate_3_original_original_Oval-2_2870146_67018910"></path>
                        <path d="M235.522582,276.111029 C263.123945,294.696895 306.79045,257.749024 292.073685,219.559926 C277.35692,181.370827 265.620233,148.869706 235.522582,163.008822 C205.424931,177.147939 178.971478,188.327614 178.971478,219.559926 C178.971478,250.792238 207.921218,257.525162 235.522582,276.111029 Z" id="duplicate_2_original_original_Oval-2_2870146_67018910"></path>
                        <path d="M236.413013,273.188371 C262.567638,290.80005 303.945341,255.788819 289.999963,219.601421 C276.054584,183.414023 264.933081,152.616463 236.413013,166.014471 C207.892945,179.412479 182.826063,190.006166 182.826063,219.601421 C182.826063,249.196676 210.258389,255.576691 236.413013,273.188371 Z" id="duplicate_1_original_original_Oval-2_2870146_67018910"></path>
                    </g>
                </g>
            </g>
        </g>
    </g>
</svg>