<svg xmlns="http://www.w3.org/2000/svg" xmlns:svgjs="http://svgjs.com/svgjs" xmlns:xlink="http://www.w3.org/1999/xlink" width="288" height="288"><svg xmlns="http://www.w3.org/2000/svg" width="288" height="288" viewBox="0 0 24 24"><path fill="#fff" d="m6.831 13.572-.009.001-.004.003c-2.167.778-5.122 6.583-4.473 7.219.005.004.006.01.011.014.003.002.007.001.01.003.26.206 2.293.861 4.45.861.805 0 3.905-.336 4.094-.859-.67-3.523-3.314-7.473-4.079-7.242zm-3.612 1.063.025.001a.25.25 0 0 0 .109-.025c4.387-2.042 5.916-6.756 5.543-6.114C8.748 7.132 2.083 5.83.686 6.479H.684c-.1.073-.086.036-.131.136l-.005.007v.005c-.238.623-.086 4.856 2.484 7.916.004.005.158.089.187.092zm11.193-5.757c1.423-.468.303-8.603-.922-8.374-3.122.603-6.444 3.48-6.807 4.644-.235.763 4.02 3.54 7.729 3.73zm9.071 1.697v-.008l-.002-.003c-.005-.018-.004-.037-.014-.054-2.292-4.005-7.418-5.181-6.652-4.841h-.001c-.896.017-2.374 6.465-1.221 8.344.583.945 6.789-1.492 7.858-3.236l.008-.007c.003-.005.002-.011.005-.016a.25.25 0 0 0 .019-.179zm-3.768 4.935c-.002-.002-.001-.005-.002-.008-.004-.005-.021-.011-.029-.016-1.306-1.086-8.669.937-8.3 1.902 1.199 3.236 4.895 6.112 5.791 6.112.007 0 .013-.006.02-.007.465-.064 2.974-3.708 2.584-7.845a.243.243 0 0 0-.064-.138z" class="color000 svgShape"/></svg></svg>